<svg width="32" height="32" viewBox="0 0 32 32" fill="none" xmlns="http://www.w3.org/2000/svg">
<path d="M10.9904 9.78669L2.48369 11.02L2.33302 11.0507C2.10494 11.1112 1.89701 11.2312 1.73048 11.3984C1.56394 11.5656 1.44476 11.774 1.3851 12.0023C1.32545 12.2306 1.32746 12.4707 1.39092 12.698C1.45439 12.9253 1.57704 13.1316 1.74635 13.296L7.90902 19.2947L6.45569 27.768L6.43835 27.9147C6.42439 28.1506 6.47338 28.386 6.58029 28.5967C6.6872 28.8074 6.8482 28.986 7.0468 29.114C7.2454 29.2421 7.47447 29.3151 7.71055 29.3255C7.94663 29.3359 8.18124 29.2834 8.39036 29.1734L15.9984 25.1734L23.589 29.1734L23.7224 29.2347C23.9424 29.3214 24.1816 29.348 24.4154 29.3117C24.6491 29.2754 24.869 29.1777 25.0525 29.0284C25.236 28.8791 25.3764 28.6837 25.4595 28.4622C25.5425 28.2407 25.5651 28.0011 25.525 27.768L24.0704 19.2947L30.2357 13.2947L30.3397 13.1814C30.4883 12.9984 30.5857 12.7793 30.622 12.5464C30.6583 12.3135 30.6323 12.0752 30.5465 11.8557C30.4607 11.6361 30.3183 11.4433 30.1337 11.2967C29.9491 11.1501 29.7289 11.0551 29.4957 11.0214L20.989 9.78669L17.1864 2.08002C17.0763 1.85673 16.906 1.66871 16.6946 1.53722C16.4832 1.40574 16.2393 1.33606 15.9904 1.33606C15.7414 1.33606 15.4975 1.40574 15.2861 1.53722C15.0747 1.66871 14.9044 1.85673 14.7944 2.08002L10.9904 9.78669Z" fill="#5548F4"/>
<path d="M19.0371 18.8789C19.0723 19.0742 19.1055 19.2441 19.1367 19.3887C19.1719 19.5293 19.2109 19.6465 19.2539 19.7402C19.3008 19.834 19.3555 19.9043 19.418 19.9512C19.4844 19.9941 19.5645 20.0156 19.6582 20.0156C19.7949 20.0156 19.8984 19.9766 19.9688 19.8984C20.0391 19.8203 20.0742 19.6875 20.0742 19.5L20.7539 19.418C20.7539 19.4219 20.7539 19.4336 20.7539 19.4531C20.7539 19.4688 20.752 19.4883 20.748 19.5117C20.748 19.5312 20.748 19.5508 20.748 19.5703C20.748 19.5859 20.748 19.5957 20.748 19.5996C20.7402 19.873 20.6973 20.1074 20.6191 20.3027C20.5449 20.498 20.4375 20.6602 20.2969 20.7891C20.1562 20.9141 19.9863 21.0059 19.7871 21.0645C19.5918 21.123 19.3691 21.1523 19.1191 21.1523C18.8184 21.1523 18.5566 21.1094 18.334 21.0234C18.1113 20.9375 17.9199 20.8086 17.7598 20.6367C17.5996 20.4648 17.4668 20.25 17.3613 19.9922C17.2559 19.7305 17.1699 19.4238 17.1035 19.0723C17.0449 18.7598 16.9746 18.5 16.8926 18.293C16.8145 18.0859 16.7266 17.9141 16.6289 17.7773C16.5234 17.6914 16.3965 17.6348 16.248 17.6074C16.0996 17.5762 15.916 17.5605 15.6973 17.5605H15.1875L15.1816 19.5352C15.1816 19.625 15.1895 19.6992 15.2051 19.7578C15.2246 19.8125 15.2559 19.8555 15.2988 19.8867C15.3418 19.9141 15.4004 19.9336 15.4746 19.9453C15.5488 19.9531 15.6445 19.957 15.7617 19.957H16.0195V21C15.875 21 15.7305 21 15.5859 21C15.4453 21 15.3008 21 15.1523 21C15.0039 20.9961 14.8457 20.9941 14.6777 20.9941C14.5137 20.9902 14.3359 20.9883 14.1445 20.9883C13.957 20.9883 13.7852 20.9902 13.6289 20.9941C13.4766 20.9941 13.332 20.9941 13.1953 20.9941C13.0586 20.9941 12.9258 20.9961 12.7969 21C12.6719 21 12.543 21 12.4102 21V19.957H12.5977C12.7656 19.957 12.8945 19.9453 12.9844 19.9219C13.0781 19.8945 13.1445 19.8555 13.1836 19.8047C13.2266 19.7539 13.25 19.6914 13.2539 19.6172C13.2617 19.543 13.2656 19.457 13.2656 19.3594V14.9824C13.2656 14.873 13.2598 14.7812 13.248 14.707C13.2402 14.6289 13.2129 14.5664 13.166 14.5195C13.123 14.4688 13.0547 14.4336 12.9609 14.4141C12.8672 14.3906 12.7363 14.3789 12.5684 14.3789H12.4102V13.3359H16.1543C16.4395 13.3359 16.7207 13.3457 16.998 13.3652C17.2793 13.3848 17.5449 13.4238 17.7949 13.4824C18.0488 13.5371 18.2832 13.6133 18.498 13.7109C18.7168 13.8086 18.9043 13.9355 19.0605 14.0918C19.2207 14.248 19.3457 14.4375 19.4355 14.6602C19.5254 14.8828 19.5703 15.1445 19.5703 15.4453C19.5703 15.6562 19.5352 15.8574 19.4648 16.0488C19.3945 16.2363 19.291 16.4062 19.1543 16.5586C19.0215 16.7109 18.8574 16.8418 18.6621 16.9512C18.4707 17.0605 18.252 17.1426 18.0059 17.1973C18.123 17.252 18.2344 17.3203 18.3398 17.4023C18.4492 17.4844 18.5488 17.5898 18.6387 17.7188C18.7285 17.8477 18.8066 18.0059 18.873 18.1934C18.9434 18.3809 18.998 18.6094 19.0371 18.8789ZM15.1816 16.7109H16.0898C16.3516 16.7109 16.5781 16.6934 16.7695 16.6582C16.9648 16.6191 17.125 16.5547 17.25 16.4648C17.375 16.375 17.4688 16.2578 17.5312 16.1133C17.5938 15.9688 17.625 15.7871 17.625 15.5684C17.625 15.3379 17.5879 15.1484 17.5137 15C17.4395 14.8477 17.3301 14.7285 17.1855 14.6426C17.0449 14.5527 16.8672 14.4922 16.6523 14.4609C16.4414 14.4258 16.1953 14.4082 15.9141 14.4082H15.1816V16.7109Z" fill="white"/>
</svg>
