<svg width="339" height="570" viewBox="0 0 339 570" fill="none" xmlns="http://www.w3.org/2000/svg">
<mask id="path-1-inside-1_257_214" fill="white">
<path fill-rule="evenodd" clip-rule="evenodd" d="M283 6H56V28V34H34V56H28H6V514H28H34V536H56V542V564H283V542V536H305V514H311H333V56H311H305V34H283V28V6ZM289 542V570H286.002H283H56H50V564V542H34H28V536V520H0V518V514V56V51V50H28V34V28H34H50V6V0H56H283H289V28H305H311V34V50H339V56V514V518V520H311V536V542H305H289ZM311 542H317H333H339V548V564V570H333H317H311V564V548V542ZM311 28V22V6V0H317H333H339V6V22V28H333H317H311ZM28 28H22H6H0V22V6V0H6H22H28V6V22V28ZM22 542H28V548V564V570H22H6H0V564V548V542H6H22ZM22 6H6V22H22V6ZM41.5 46C43.433 46 45 44.433 45 42.5C45 40.567 43.433 39 41.5 39C39.567 39 38 40.567 38 42.5C38 44.433 39.567 46 41.5 46ZM333 22V6H317V22H333ZM293 41.5C293 43.433 294.567 45 296.5 45C298.433 45 300 43.433 300 41.5C300 39.567 298.433 38 296.5 38C294.567 38 293 39.567 293 41.5ZM6 548V564H22V548H6ZM46 528.5C46 526.567 44.433 525 42.5 525C40.567 525 39 526.567 39 528.5C39 530.433 40.567 532 42.5 532C44.433 532 46 530.433 46 528.5ZM317 564H333V548H317V564ZM297.5 524C295.567 524 294 525.567 294 527.5C294 529.433 295.567 531 297.5 531C299.433 531 301 529.433 301 527.5C301 525.567 299.433 524 297.5 524Z"/>
</mask>
<path fill-rule="evenodd" clip-rule="evenodd" d="M283 6H56V28V34H34V56H28H6V514H28H34V536H56V542V564H283V542V536H305V514H311H333V56H311H305V34H283V28V6ZM289 542V570H286.002H283H56H50V564V542H34H28V536V520H0V518V514V56V51V50H28V34V28H34H50V6V0H56H283H289V28H305H311V34V50H339V56V514V518V520H311V536V542H305H289ZM311 542H317H333H339V548V564V570H333H317H311V564V548V542ZM311 28V22V6V0H317H333H339V6V22V28H333H317H311ZM28 28H22H6H0V22V6V0H6H22H28V6V22V28ZM22 542H28V548V564V570H22H6H0V564V548V542H6H22ZM22 6H6V22H22V6ZM41.5 46C43.433 46 45 44.433 45 42.5C45 40.567 43.433 39 41.5 39C39.567 39 38 40.567 38 42.5C38 44.433 39.567 46 41.5 46ZM333 22V6H317V22H333ZM293 41.5C293 43.433 294.567 45 296.5 45C298.433 45 300 43.433 300 41.5C300 39.567 298.433 38 296.5 38C294.567 38 293 39.567 293 41.5ZM6 548V564H22V548H6ZM46 528.5C46 526.567 44.433 525 42.5 525C40.567 525 39 526.567 39 528.5C39 530.433 40.567 532 42.5 532C44.433 532 46 530.433 46 528.5ZM317 564H333V548H317V564ZM297.5 524C295.567 524 294 525.567 294 527.5C294 529.433 295.567 531 297.5 531C299.433 531 301 529.433 301 527.5C301 525.567 299.433 524 297.5 524Z" fill="#5B5B5B"/>
<path d="M56 6V0H50V6H56ZM283 6H289V0H283V6ZM56 34V40H62V34H56ZM34 34V28H28V34H34ZM34 56V62H40V56H34ZM6 56V50H0V56H6ZM6 514H0V520H6V514ZM34 514H40V508H34V514ZM34 536H28V542H34V536ZM56 536H62V530H56V536ZM56 564H50V570H56V564ZM283 564V570H289V564H283ZM283 536V530H277V536H283ZM305 536V542H311V536H305ZM305 514V508H299V514H305ZM333 514V520H339V514H333ZM333 56H339V50H333V56ZM305 56H299V62H305V56ZM305 34H311V28H305V34ZM283 34H277V40H283V34ZM289 570V576H295V570H289ZM289 542V536H283V542H289ZM50 570H44V576H50V570ZM50 542H56V536H50V542ZM28 520H34V514H28V520ZM0 520H-6V526H0V520ZM0 50V44H-6V50H0ZM28 50V56H34V50H28ZM50 28V34H56V28H50ZM50 0V-6H44V0H50ZM289 0H295V-6H289V0ZM289 28H283V34H289V28ZM311 50H305V56H311V50ZM339 50H345V44H339V50ZM339 520V526H345V520H339ZM311 520V514H305V520H311ZM339 542H345V536H339V542ZM339 570V576H345V570H339ZM311 570H305V576H311V570ZM311 0V-6H305V0H311ZM339 0H345V-6H339V0ZM339 28V34H345V28H339ZM0 28H-6V34H0V28ZM0 0V-6H-6V0H0ZM28 0H34V-6H28V0ZM28 570V576H34V570H28ZM0 570H-6V576H0V570ZM0 542V536H-6V542H0ZM6 6V0H0V6H6ZM22 6H28V0H22V6ZM6 22H0V28H6V22ZM22 22V28H28V22H22ZM333 6H339V0H333V6ZM333 22V28H339V22H333ZM317 6V0H311V6H317ZM317 22H311V28H317V22ZM6 564H0V570H6V564ZM6 548V542H0V548H6ZM22 564V570H28V564H22ZM22 548H28V542H22V548ZM333 564V570H339V564H333ZM317 564H311V570H317V564ZM333 548H339V542H333V548ZM317 548V542H311V548H317ZM56 12H283V0H56V12ZM62 28V6H50V28H62ZM62 34V28H50V34H62ZM34 40H56V28H34V40ZM40 56V34H28V56H40ZM28 62H34V50H28V62ZM6 62H28V50H6V62ZM12 514V56H0V514H12ZM28 508H6V520H28V508ZM34 508H28V520H34V508ZM40 536V514H28V536H40ZM56 530H34V542H56V530ZM62 542V536H50V542H62ZM62 564V542H50V564H62ZM283 558H56V570H283V558ZM277 542V564H289V542H277ZM277 536V542H289V536H277ZM305 530H283V542H305V530ZM299 514V536H311V514H299ZM311 508H305V520H311V508ZM333 508H311V520H333V508ZM327 56V514H339V56H327ZM311 62H333V50H311V62ZM305 62H311V50H305V62ZM299 34V56H311V34H299ZM283 40H305V28H283V40ZM277 28V34H289V28H277ZM277 6V28H289V6H277ZM295 570V542H283V570H295ZM286.002 576H289V564H286.002V576ZM283 576H286.002V564H283V576ZM56 576H283V564H56V576ZM50 576H56V564H50V576ZM44 564V570H56V564H44ZM44 542V564H56V542H44ZM34 548H50V536H34V548ZM28 548H34V536H28V548ZM22 536V542H34V536H22ZM22 520V536H34V520H22ZM0 526H28V514H0V526ZM-6 518V520H6V518H-6ZM-6 514V518H6V514H-6ZM-6 56V514H6V56H-6ZM-6 51V56H6V51H-6ZM-6 50V51H6V50H-6ZM28 44H0V56H28V44ZM22 34V50H34V34H22ZM22 28V34H34V28H22ZM34 22H28V34H34V22ZM50 22H34V34H50V22ZM44 6V28H56V6H44ZM44 0V6H56V0H44ZM56 -6H50V6H56V-6ZM283 -6H56V6H283V-6ZM289 -6H283V6H289V-6ZM295 28V0H283V28H295ZM305 22H289V34H305V22ZM311 22H305V34H311V22ZM317 34V28H305V34H317ZM317 50V34H305V50H317ZM339 44H311V56H339V44ZM345 56V50H333V56H345ZM345 514V56H333V514H345ZM345 518V514H333V518H345ZM345 520V518H333V520H345ZM311 526H339V514H311V526ZM317 536V520H305V536H317ZM317 542V536H305V542H317ZM305 548H311V536H305V548ZM289 548H305V536H289V548ZM317 536H311V548H317V536ZM333 536H317V548H333V536ZM339 536H333V548H339V536ZM345 548V542H333V548H345ZM345 564V548H333V564H345ZM345 570V564H333V570H345ZM333 576H339V564H333V576ZM317 576H333V564H317V576ZM311 576H317V564H311V576ZM305 564V570H317V564H305ZM305 548V564H317V548H305ZM305 542V548H317V542H305ZM305 22V28H317V22H305ZM305 6V22H317V6H305ZM305 0V6H317V0H305ZM317 -6H311V6H317V-6ZM333 -6H317V6H333V-6ZM339 -6H333V6H339V-6ZM345 6V0H333V6H345ZM345 22V6H333V22H345ZM345 28V22H333V28H345ZM333 34H339V22H333V34ZM317 34H333V22H317V34ZM311 34H317V22H311V34ZM22 34H28V22H22V34ZM6 34H22V22H6V34ZM0 34H6V22H0V34ZM-6 22V28H6V22H-6ZM-6 6V22H6V6H-6ZM-6 0V6H6V0H-6ZM6 -6H0V6H6V-6ZM22 -6H6V6H22V-6ZM28 -6H22V6H28V-6ZM34 6V0H22V6H34ZM34 22V6H22V22H34ZM34 28V22H22V28H34ZM28 536H22V548H28V536ZM34 548V542H22V548H34ZM34 564V548H22V564H34ZM34 570V564H22V570H34ZM22 576H28V564H22V576ZM6 576H22V564H6V576ZM0 576H6V564H0V576ZM-6 564V570H6V564H-6ZM-6 548V564H6V548H-6ZM-6 542V548H6V542H-6ZM6 536H0V548H6V536ZM22 536H6V548H22V536ZM6 12H22V0H6V12ZM12 22V6H0V22H12ZM22 16H6V28H22V16ZM16 6V22H28V6H16ZM39 42.5C39 41.1193 40.1193 40 41.5 40V52C46.7467 52 51 47.7467 51 42.5H39ZM41.5 45C40.1193 45 39 43.8807 39 42.5H51C51 37.2533 46.7467 33 41.5 33V45ZM44 42.5C44 43.8807 42.8807 45 41.5 45V33C36.2533 33 32 37.2533 32 42.5H44ZM41.5 40C42.8807 40 44 41.1193 44 42.5H32C32 47.7467 36.2533 52 41.5 52V40ZM327 6V22H339V6H327ZM317 12H333V0H317V12ZM323 22V6H311V22H323ZM333 16H317V28H333V16ZM296.5 39C297.881 39 299 40.1193 299 41.5H287C287 46.7467 291.253 51 296.5 51V39ZM294 41.5C294 40.1193 295.119 39 296.5 39V51C301.747 51 306 46.7467 306 41.5H294ZM296.5 44C295.119 44 294 42.8807 294 41.5H306C306 36.2533 301.747 32 296.5 32V44ZM299 41.5C299 42.8807 297.881 44 296.5 44V32C291.253 32 287 36.2533 287 41.5H299ZM12 564V548H0V564H12ZM22 558H6V570H22V558ZM16 548V564H28V548H16ZM6 554H22V542H6V554ZM42.5 531C41.1193 531 40 529.881 40 528.5H52C52 523.253 47.7467 519 42.5 519V531ZM45 528.5C45 529.881 43.8807 531 42.5 531V519C37.2533 519 33 523.253 33 528.5H45ZM42.5 526C43.8807 526 45 527.119 45 528.5H33C33 533.747 37.2533 538 42.5 538V526ZM40 528.5C40 527.119 41.1193 526 42.5 526V538C47.7467 538 52 533.747 52 528.5H40ZM333 558H317V570H333V558ZM327 548V564H339V548H327ZM317 554H333V542H317V554ZM323 564V548H311V564H323ZM300 527.5C300 528.881 298.881 530 297.5 530V518C292.253 518 288 522.253 288 527.5H300ZM297.5 525C298.881 525 300 526.119 300 527.5H288C288 532.747 292.253 537 297.5 537V525ZM295 527.5C295 526.119 296.119 525 297.5 525V537C302.747 537 307 532.747 307 527.5H295ZM297.5 530C296.119 530 295 528.881 295 527.5H307C307 522.253 302.747 518 297.5 518V530Z" fill="#5B5B5B" mask="url(#path-1-inside-1_257_214)"/>
</svg>
