<svg width="424" height="116" viewBox="0 0 424 116" fill="none" xmlns="http://www.w3.org/2000/svg">
<path d="M2.52841 52V22.9091H14.0057C16.2027 22.9091 18.0777 23.3021 19.6307 24.0881C21.1932 24.8646 22.3816 25.9678 23.196 27.3977C24.0199 28.8182 24.4318 30.4896 24.4318 32.4119C24.4318 34.3437 24.0152 36.0057 23.1818 37.3977C22.3485 38.7803 21.1411 39.8409 19.5597 40.5795C17.9877 41.3182 16.0843 41.6875 13.8494 41.6875H6.16477V36.7443H12.8551C14.0294 36.7443 15.0047 36.5833 15.7812 36.2614C16.5578 35.9394 17.1354 35.4564 17.5142 34.8125C17.9025 34.1686 18.0966 33.3684 18.0966 32.4119C18.0966 31.446 17.9025 30.6316 17.5142 29.9688C17.1354 29.3059 16.553 28.804 15.767 28.4631C14.9905 28.1127 14.0104 27.9375 12.8267 27.9375H8.67898V52H2.52841ZM18.2386 38.7614L25.4688 52H18.679L11.6051 38.7614H18.2386ZM33.7926 52H27.2017L37.2443 22.9091H45.1705L55.1989 52H48.608L41.321 29.5568H41.0938L33.7926 52ZM33.3807 40.5653H48.9489V45.3665H33.3807V40.5653ZM54.0376 27.9801V22.9091H77.9297V27.9801H69.0234V52H62.9439V27.9801H54.0376ZM81.8643 52V22.9091H101.467V27.9801H88.0149V34.9119H100.458V39.983H88.0149V46.929H101.523V52H81.8643Z" fill="white"/>
<path d="M23.4205 68.9801V63.9091H47.3125V68.9801H38.4062V93H32.3267V68.9801H23.4205ZM51.2472 93V63.9091H57.3977V75.9119H69.8835V63.9091H76.0199V93H69.8835V80.983H57.3977V93H51.2472ZM81.0909 93V63.9091H100.693V68.9801H87.2415V75.9119H99.6847V80.983H87.2415V87.929H100.75V93H81.0909Z" fill="white"/>
<path d="M113.068 23.1818H131.273L150.5 70.0909H151.318L170.545 23.1818H188.75V93H174.432V47.5568H173.852L155.784 92.6591H146.034L127.966 47.3864H127.386V93H113.068V23.1818ZM265.071 58.0909C265.071 65.7045 263.628 72.1818 260.741 77.5227C257.878 82.8636 253.969 86.9432 249.014 89.7614C244.082 92.5568 238.537 93.9545 232.378 93.9545C226.173 93.9545 220.605 92.5455 215.673 89.7273C210.741 86.9091 206.844 82.8295 203.98 77.4886C201.116 72.1477 199.685 65.6818 199.685 58.0909C199.685 50.4773 201.116 44 203.98 38.6591C206.844 33.3182 210.741 29.25 215.673 26.4545C220.605 23.6364 226.173 22.2273 232.378 22.2273C238.537 22.2273 244.082 23.6364 249.014 26.4545C253.969 29.25 257.878 33.3182 260.741 38.6591C263.628 44 265.071 50.4773 265.071 58.0909ZM250.105 58.0909C250.105 53.1591 249.366 49 247.889 45.6136C246.435 42.2273 244.378 39.6591 241.719 37.9091C239.06 36.1591 235.946 35.2841 232.378 35.2841C228.81 35.2841 225.696 36.1591 223.037 37.9091C220.378 39.6591 218.31 42.2273 216.832 45.6136C215.378 49 214.651 53.1591 214.651 58.0909C214.651 63.0227 215.378 67.1818 216.832 70.5682C218.31 73.9545 220.378 76.5227 223.037 78.2727C225.696 80.0227 228.81 80.8977 232.378 80.8977C235.946 80.8977 239.06 80.0227 241.719 78.2727C244.378 76.5227 246.435 73.9545 247.889 70.5682C249.366 67.1818 250.105 63.0227 250.105 58.0909ZM284.682 23.1818L301.557 76.2273H302.205L319.114 23.1818H335.477L311.409 93H292.386L268.284 23.1818H284.682ZM358.642 23.1818V93H343.881V23.1818H358.642ZM370.787 93V23.1818H417.832V35.3523H385.548V51.9886H415.412V64.1591H385.548V80.8295H417.969V93H370.787Z" fill="white"/>
</svg>
